<svg width="24" height="24" viewBox="0 0 24 24" fill="none" xmlns="http://www.w3.org/2000/svg">
<path d="M22.7069 11.2914L22.7083 11.2928C22.8015 11.3857 22.8755 11.4961 22.926 11.6177C22.9765 11.7392 23.0024 11.8695 23.0024 12.0011C23.0024 12.1327 22.9765 12.2631 22.926 12.3846C22.8755 12.5062 22.8015 12.6166 22.7083 12.7095L22.7077 12.7101L12.7077 22.7101L12.7071 22.7107C12.6142 22.8039 12.5038 22.8779 12.3822 22.9284C12.2607 22.9788 12.1304 23.0048 11.9988 23.0048C11.8671 23.0048 11.7368 22.9788 11.6153 22.9284C11.4937 22.8779 11.3833 22.8039 11.2904 22.7107L11.2898 22.7101L1.28981 12.7101C1.19671 12.617 1.12286 12.5065 1.07247 12.3848C1.02209 12.2632 0.996155 12.1328 0.996155 12.0011C0.996155 11.8695 1.02209 11.7391 1.07247 11.6175C1.12286 11.4958 1.19671 11.3853 1.28981 11.2922C1.38291 11.1991 1.49344 11.1252 1.61508 11.0749C1.73672 11.0245 1.86709 10.9985 1.99876 10.9985C2.13042 10.9985 2.2608 11.0245 2.38244 11.0749C2.50408 11.1252 2.6146 11.1991 2.7077 11.2922L2.70775 11.2922L11.6465 20.2285L12.0001 20.582L12.3536 20.2284L21.2919 11.2889C21.2919 11.2889 21.2919 11.2889 21.2919 11.2888C21.3849 11.196 21.4953 11.1225 21.6168 11.0724C21.7383 11.0223 21.8685 10.9966 21.9999 10.9968C22.1313 10.9971 22.2614 11.0232 22.3827 11.0737C22.504 11.1243 22.6142 11.1982 22.7069 11.2914ZM11.2904 12.7107L11.2898 12.7101L1.28981 2.71008C1.10179 2.52206 0.996155 2.26704 0.996155 2.00114C0.996155 1.73523 1.10179 1.48021 1.28981 1.29219C1.47783 1.10417 1.73285 0.998535 1.99876 0.998535C2.26466 0.998535 2.51968 1.10417 2.7077 1.29219L2.70775 1.29224L11.6465 10.2285L12.0001 10.5819L12.3536 10.2284L21.2898 1.29219C21.3829 1.19909 21.4934 1.12524 21.6151 1.07485C21.7367 1.02447 21.8671 0.998535 21.9988 0.998535C22.1304 0.998535 22.2608 1.02447 22.3824 1.07485C22.5041 1.12524 22.6146 1.19909 22.7077 1.29219C22.8008 1.38529 22.8747 1.49581 22.925 1.61746C22.9754 1.7391 23.0014 1.86948 23.0014 2.00114C23.0014 2.1328 22.9754 2.26317 22.925 2.38482C22.8747 2.50646 22.8008 2.61699 22.7077 2.71008L12.7077 12.7101L12.7071 12.7107C12.6142 12.8039 12.5038 12.8779 12.3822 12.9284C12.2607 12.9788 12.1304 13.0048 11.9988 13.0048C11.8671 13.0048 11.7368 12.9788 11.6153 12.9284C11.4937 12.8779 11.3833 12.8039 11.2904 12.7107Z" fill="#878EA1" stroke="black"/>
</svg>
